<svg xmlns="http://www.w3.org/2000/svg" xmlns:xlink="http://www.w3.org/1999/xlink" width="375" height="196" viewBox="0 0 375 196">
    <defs>
        <path id="x59gr8vaba" d="M0 0v191.564s67.446-30.162 181.655-30.162C295.863 161.402 375 196 375 196V0H0z"/>
    </defs>
    <g fill="none" fill-rule="evenodd">
        <g>
            <mask id="57zvqfqq0b" fill="#fff">
                <use xlink:href="#x59gr8vaba"/>
            </mask>
            <path fill="#2EA400" d="M0 192s62.784-30.85 180.952-30.85C299.12 161.15 375 195 375 195V-79H0v271z" mask="url(#57zvqfqq0b)"/>
            <path fill="#39C600" fill-opacity=".4" d="M56.736-31.782c3.807-4.367 7.564-8.774 11.43-13.092 8.716-9.736 18.169-18.775 27.996-27.477 4.546-4.027 9.202-7.921 14.072-11.548 4.709-3.505 9.484-6.933 14.471-10.106 5.13-3.265 10.297-6.439 15.628-9.388 8.214-4.541 16.684-8.559 25.453-12.006 8.297-3.26 16.845-5.862 25.494-7.994 7.322-1.807 14.837-2.977 22.41-3.623 10.331-.88 20.658-.977 30.982-.016 7.98.743 15.83 2.068 23.62 4.004 9.462 2.35 18.568 5.536 27.4 9.455 18.562 8.233 35.01 19.426 49.694 33.07 7.644 7.105 14.505 14.878 20.923 22.98 3.909 4.937 7.286 10.269 10.568 15.653 4.598 7.544 8.363 15.408 11.466 23.599 4.534 11.972 7.196 24.303 7.805 37.044.548 11.463-.473 22.897-3.395 33.911-3.017 11.372-7.529 22.384-13.451 32.782-11.944 20.968-27.483 39.161-45.694 55.356-6.266 5.571-12.622 11.045-19.278 16.162-7.423 5.704-15.12 11.067-23.004 16.196-6.646 4.323-13.287 8.666-20.216 12.52-8.078 4.491-16.17 8.97-24.516 13.035-12.911 6.287-25.983 12.206-39.474 17.223-10.832 4.028-21.887 7.432-33.004 10.7-12.56 3.697-25.312 6.446-38.233 8.435-14.94 2.3-30.032 3.067-45.147 2.391-8.934-.4-17.847-1.398-26.541-3.517-15.558-3.79-30.011-9.882-42.43-19.835-6.31-5.056-11.684-10.954-16.26-17.563-10.867-15.687-15.413-33.232-16.723-51.736-.872-12.306-.04-24.545 1.922-36.732 1.365-8.477 3.355-16.816 5.571-25.117C-2.136 77.032-.181 71.2 1.776 65.355 7.281 48.925 14.804 33.34 23.158 18.12 28.41 8.548 34.17-.761 40.436-9.771c.674-.971 1.262-1.998 1.889-2.998l14.411-19.013" mask="url(#57zvqfqq0b)"/>
            <path fill="#44E800" fill-opacity=".3" d="M129.946-10.185c4.182-2.544 8.336-5.132 12.553-7.623 9.508-5.615 19.415-10.498 29.534-15.02 4.68-2.092 9.412-4.054 14.246-5.749 4.672-1.638 9.376-3.2 14.18-4.506 4.945-1.344 9.893-2.609 14.914-3.653 7.733-1.607 15.532-2.736 23.417-3.337 7.46-.568 14.947-.551 22.39-.137 6.3.35 12.586 1.253 18.778 2.587 8.448 1.821 16.687 4.264 24.642 7.547 6.15 2.538 12.042 5.507 17.725 8.947 6.904 4.177 13.302 8.933 19.29 14.204 12.582 11.078 22.7 23.99 30.767 38.424 4.2 7.516 7.6 15.372 10.56 23.38 1.802 4.88 3.077 9.945 4.263 15.027 1.66 7.12 2.574 14.295 2.875 21.565.438 10.626-.706 21.082-3.594 31.363-2.597 9.25-6.434 18.094-11.672 26.14-5.408 8.307-11.909 15.963-19.37 22.787-15.046 13.76-32.217 24.436-50.984 32.872-6.455 2.902-12.959 5.704-19.607 8.148-7.411 2.726-14.95 5.113-22.577 7.268-6.43 1.816-12.86 3.65-19.389 5.023-7.612 1.602-15.233 3.188-22.946 4.384-11.93 1.85-23.892 3.367-35.947 4.066-9.68.56-19.373.569-29.078.457-10.965-.126-21.835-1.052-32.635-2.623-12.488-1.815-24.693-4.887-36.536-9.113-6.999-2.498-13.823-5.467-20.177-9.274-11.368-6.81-21.25-15.18-28.493-26.125-3.68-5.561-6.393-11.563-8.285-17.934-4.49-15.126-3.464-30.189.39-45.224 2.563-9.998 6.462-19.529 11.247-28.742 3.328-6.41 7.116-12.554 11.075-18.615 2.836-4.346 5.935-8.506 9.038-12.675 8.726-11.725 18.83-22.282 29.502-32.348 6.71-6.33 13.753-12.328 21.117-17.964.795-.607 1.533-1.281 2.296-1.922l16.49-11.605" mask="url(#57zvqfqq0b)"/>
            <path fill="#2EA400" fill-opacity=".3" d="M141.946 37.815c4.182-2.544 8.336-5.132 12.553-7.623 9.508-5.615 19.415-10.498 29.534-15.02 4.68-2.092 9.412-4.054 14.246-5.749 4.672-1.638 9.376-3.2 14.18-4.506 4.945-1.344 9.893-2.609 14.914-3.653 7.733-1.607 15.532-2.736 23.417-3.337 7.46-.568 14.947-.551 22.39-.137 6.3.35 12.586 1.253 18.778 2.587 8.448 1.821 16.687 4.264 24.642 7.547 6.15 2.538 12.042 5.507 17.725 8.947 6.904 4.177 13.302 8.933 19.29 14.204 12.582 11.078 22.7 23.99 30.767 38.424 4.2 7.516 7.6 15.372 10.56 23.38 1.802 4.88 3.077 9.945 4.263 15.027 1.66 7.12 2.574 14.295 2.875 21.565.438 10.626-.706 21.082-3.594 31.363-2.597 9.25-6.434 18.094-11.672 26.14-5.408 8.307-11.909 15.963-19.37 22.787-15.046 13.76-32.217 24.436-50.984 32.872-6.455 2.902-12.959 5.704-19.607 8.148-7.411 2.726-14.95 5.113-22.577 7.268-6.43 1.816-12.86 3.65-19.389 5.023-7.612 1.602-15.233 3.188-22.946 4.384-11.93 1.85-23.892 3.367-35.947 4.066-9.68.56-19.373.569-29.078.457-10.965-.126-21.835-1.052-32.635-2.623-12.488-1.815-24.693-4.887-36.536-9.113-6.999-2.498-13.823-5.467-20.177-9.274-11.368-6.81-21.25-15.18-28.493-26.125-3.68-5.561-6.393-11.563-8.285-17.934-4.49-15.126-3.464-30.189.39-45.224 2.563-9.998 6.462-19.529 11.247-28.742 3.328-6.41 7.116-12.554 11.075-18.615 2.836-4.346 5.935-8.506 9.038-12.675 8.726-11.725 18.83-22.282 29.502-32.348 6.71-6.33 13.753-12.328 21.117-17.964.795-.607 1.533-1.281 2.296-1.922l16.49-11.605" mask="url(#57zvqfqq0b)"/>
        </g>
    </g>
</svg>
