<?xml version="1.0" encoding="UTF-8"?>
<svg width="20px" height="20px" viewBox="0 0 20 20" version="1.1" xmlns="http://www.w3.org/2000/svg" xmlns:xlink="http://www.w3.org/1999/xlink">
    <title>mdpi/Shape</title>
    <defs>
        <filter color-interpolation-filters="auto" id="filter-1">
            <feColorMatrix in="SourceGraphic" type="matrix" values="0 0 0 0 0.129412 0 0 0 0 0.129412 0 0 0 0 0.129412 0 0 0 1.000000 0"></feColorMatrix>
        </filter>
    </defs>
    <g id="measure" stroke="none" stroke-width="1" fill="none" fill-rule="evenodd">
        <g id="iPhone-8-Copy-11" transform="translate(-41.000000, -383.000000)">
            <g id="4.-View/mensaje/contextual" transform="translate(23.000000, 365.000000)">
                <g id="01.-Iconos/SDS-iconos/Iconos-sistema/comunicacion/sds-icons-tiempo_de_espera" transform="translate(16.000000, 16.000000)" filter="url(#filter-1)">
                    <g id="info-black-24dp" fill="#8200FF">
                        <path d="M12,2 C6.48,2 2,6.48 2,12 C2,17.52 6.48,22 12,22 C17.52,22 22,17.52 22,12 C22,6.48 17.52,2 12,2 Z M12,11 C12.55,11 13,11.45 13,12 L13,16 C13,16.55 12.55,17 12,17 C11.45,17 11,16.55 11,16 L11,12 C11,11.45 11.45,11 12,11 Z M12,7 C12.5522847,7 13,7.44771525 13,8 C13,8.55228475 12.5522847,9 12,9 C11.4477153,9 11,8.55228475 11,8 C11,7.44771525 11.4477153,7 12,7 Z" id="Shape"></path>
                    </g>
                </g>
            </g>
        </g>
    </g>
</svg>